PathFileType	4	(X/Y/Z)	/Users/itak/Documents/Research/Walk-IL/dataset/trc/00291_00010.trc
DataRate	CameraRate	NumFrames	NumMarkers	Units	OrigDataRate	OrigDataStartFrame	OrigNumFrames
100.000000	100.000000	4	54	mm	100.000000	574	656
Frame#	Time	RPSI			LPSI			L3			STRN			T10			C7			CLAV			RBAK			LBAK			LSHO			LUPA			LAEL			LAOL			LWTS			LWPS			LFRA			LHPS			LHTS			RSHO			RUPA			RAEL			RAOL			RWTS			RWPS			RFRA			RHTS			RHPS			RBHD			LFHD			RFHD			LBHD			RHIP			RASI			LASI			LKNE			LTHI			LANK			LTIP			LTOE			LMT1			LMT5			LHEE			RKNE			RTHI			RANK			RTIP			RTOE			RMT1			RMT5			RHEE			LHIP			RIFD			LIFD			*53			
		X1	Y1	Z1	X2	Y2	Z2	X3	Y3	Z3	X4	Y4	Z4	X5	Y5	Z5	X6	Y6	Z6	X7	Y7	Z7	X8	Y8	Z8	X9	Y9	Z9	X10	Y10	Z10	X11	Y11	Z11	X12	Y12	Z12	X13	Y13	Z13	X14	Y14	Z14	X15	Y15	Z15	X16	Y16	Z16	X17	Y17	Z17	X18	Y18	Z18	X19	Y19	Z19	X20	Y20	Z20	X21	Y21	Z21	X22	Y22	Z22	X23	Y23	Z23	X24	Y24	Z24	X25	Y25	Z25	X26	Y26	Z26	X27	Y27	Z27	X28	Y28	Z28	X29	Y29	Z29	X30	Y30	Z30	X31	Y31	Z31	X32	Y32	Z32	X33	Y33	Z33	X34	Y34	Z34	X35	Y35	Z35	X36	Y36	Z36	X37	Y37	Z37	X38	Y38	Z38	X39	Y39	Z39	X40	Y40	Z40	X41	Y41	Z41	X42	Y42	Z42	X43	Y43	Z43	X44	Y44	Z44	X45	Y45	Z45	X46	Y46	Z46	X47	Y47	Z47	X48	Y48	Z48	X49	Y49	Z49	X50	Y50	Z50	X51	Y51	Z51	X52	Y52	Z52	X53	Y53	Z53	X54	Y54	Z54	

575	5.74	269.4066162109375	991.047119140625	1030.439453125	268.4224548339844	994.6327514648438	1204.996215820312	253.1462707519531	1070.118408203125	1122.238891601562	-0.927419126033783	1248.274658203125	1130.835083007812	267.6619567871094	1188.294311523438	1129.4833984375	217.0726470947266	1430.868286132812	1161.1669921875	62.31437301635742	1347.3583984375	1142.691162109375	274.4873352050781	1301.364990234375	1077.599853515625	230.0831146240234	1385.754516601562	1261.534790039062	139.7637786865234	1389.677368164062	1308.423706054688	160.6734161376953	1275.119750976562	1385.892700195312	130.5520172119141	1080.077270507812	1423.582275390625	184.5914306640625	1049.44287109375	1362.462768554688	-3.755849361419678	885.5484008789062	1415.29150390625	36.99627685546875	870.1866455078125	1472.118408203125	96.82997131347656	983.828857421875	1445.986083984375	7.619531154632568	789.0194702148438	1484.8427734375	-49.76285171508789	802.9929809570312	1456.249389648438	159.2030792236328	1422.185180664062	1000.151184082031	174.2684326171875	1370.0634765625	929.8017578125	219.1867980957031	1111.770874023438	866.4591064453125	241.6168212890625	1099.5830078125	957.804443359375	104.8991317749023	892.9400634765625	894.5697021484375	157.3269653320312	887.6995239257812	828.4061279296875	197.2913360595703	1044.865234375	847.9232177734375	70.82150268554688	779.3433837890625	868.1901245117188	126.7906723022461	778.2357788085938	824.886474609375	164.5629577636719	1606.893432617188	1118.843627929688	-16.08950805664062	1589.564819335938	1228.87158203125	-11.21728897094727	1601.651489257812	1137.023559570312	157.7825927734375	1578.409057617188	1261.473876953125	162.9773254394531	945.5892944335938	930.4088134765625	47.47811126708984	958.282470703125	1003.079528808594	59.65602493286133	961.3925170898438	1254.913940429688	113.2239532470703	487.4790649414062	1268.279418945312	127.0145721435547	631.0942993164062	1292.009033203125	201.921142578125	47.28945159912109	1234.403076171875	156.5836334228516	258.5542602539062	1259.439819335938	-10.21975517272949	38.04754638671875	1181.735595703125	60.38306427001953	30.72062873840332	1139.253051757812	79.62391662597656	41.11348724365234	1249.9072265625	244.3227844238281	42.77387619018555	1172.350341796875	0.5372622609138489	498.2314147949219	955.7484130859375	59.3481330871582	752.4773559570312	932.7333984375	228.1770477294922	102.9133605957031	978.366455078125	28.83827590942383	374.0401000976562	968.50634765625	53.08435821533203	68.24730682373047	1059.334350585938	113.9895629882812	75.06715393066406	1089.67626953125	129.3535308837891	63.2378044128418	973.9031982421875	285.6700439453125	118.6990127563477	1017.228088378906	199.8350677490234	953.00048828125	1304.185913085938	90.80411529541016	706.6828002929688	886.4635620117188	-59.56590270996094	713.5556640625	1453.022338867188	nan	nan	nan	
576	5.75	268.3292541503906	991.4840087890625	1032.43896484375	266.2693176269531	994.9635009765625	1206.990234375	251.2731323242188	1070.265991210938	1124.15087890625	-2.829781532287598	1248.39306640625	1131.509155273438	265.7890930175781	1188.350952148438	1131.47900390625	215.2710723876953	1430.9013671875	1162.918212890625	60.36859130859375	1347.638793945312	1143.71337890625	273.0588684082031	1301.464721679688	1079.5712890625	227.7784881591797	1385.787231445312	1263.346069335938	137.2520446777344	1389.754272460938	1309.903564453125	157.5594329833984	1274.802490234375	1387.034423828125	126.7827758789062	1079.501708984375	1423.12060546875	181.3536376953125	1049.157104492188	1362.202026367188	-8.197056770324707	885.670166015625	1411.964233398438	31.56908226013184	869.7814331054688	1469.109008789062	92.30158233642578	983.0972290039062	1444.322143554688	1.338180780410767	788.6446533203125	1480.921630859375	-55.59161758422852	803.3546142578125	1451.9384765625	158.0614166259766	1422.271850585938	1001.602600097656	173.2880706787109	1370.000244140625	931.37158203125	217.776611328125	1111.442993164062	868.7179565429688	240.3344573974609	1099.614013671875	960.0540161132812	103.902587890625	892.5155029296875	897.80810546875	156.0707397460938	887.2184448242188	831.507080078125	195.9052429199219	1044.450927734375	850.4525756835938	70.01919555664062	778.716552734375	871.9845581054688	125.8386688232422	777.6135864257812	828.501953125	163.3068542480469	1606.963989257812	1120.329223632812	-18.04839134216309	1589.906005859375	1229.294921875	-12.61042022705078	1601.930297851562	1137.51513671875	155.6722564697266	1578.559326171875	1262.927368164062	162.3716735839844	945.7431640625	931.8719482421875	46.57600021362305	958.1731567382812	1003.802185058594	57.27573776245117	961.2384033203125	1255.78759765625	113.1602249145508	487.3733520507812	1268.722290039062	126.1201858520508	630.8823852539062	1292.590698242188	201.9407196044922	47.27291488647461	1234.452026367188	156.8419647216797	258.4993286132812	1259.650756835938	-10.19479465484619	38.06763458251953	1181.744750976562	60.29990005493164	30.8022346496582	1139.269775390625	79.64928436279297	41.10134506225586	1249.924560546875	244.3462371826172	42.77133178710938	1172.361572265625	1.988628149032593	497.3261108398438	957.007568359375	59.568603515625	752.11767578125	933.9212646484375	220.8569488525391	96.67667388916016	982.4479370117188	28.23730278015137	372.4107360839844	970.2521362304688	43.75258255004883	68.57270812988281	1061.65673828125	104.3146743774414	73.32855224609375	1092.60595703125	120.7387008666992	60.5438232421875	977.108154296875	278.4611206054688	110.6919403076172	1021.865783691406	197.3166351318359	953.127685546875	1305.785034179688	90.28435516357422	706.2357177734375	890.4658813476562	-66.12464904785156	714.080322265625	1447.873168945312	nan	nan	nan	
577	5.76	267.2273254394531	991.9573974609375	1034.329956054688	264.15478515625	995.3163452148438	1208.873291015625	249.3765411376953	1070.394897460938	1125.943237304688	-4.700754165649414	1248.48828125	1132.132446289062	263.9350280761719	1188.388549804688	1133.35498046875	213.5174102783203	1430.909545898438	1164.57080078125	58.45691299438477	1347.90234375	1144.708129882812	271.6307678222656	1301.531616210938	1081.428344726562	225.5344543457031	1385.79736328125	1265.044921875	134.8128662109375	1389.794921875	1311.295043945312	154.5543365478516	1274.441284179688	1388.046752929688	123.2153549194336	1078.86669921875	1422.447631835938	178.3253631591797	1048.861938476562	1361.736206054688	-12.31748962402344	885.7177124023438	1408.38037109375	26.47044563293457	869.3095092773438	1465.803344726562	88.03181457519531	982.3402709960938	1442.43359375	-4.593911647796631	788.1554565429688	1476.648803710938	-61.09947967529297	803.6248168945312	1447.29248046875	156.9088439941406	1422.334350585938	1002.968566894531	172.2671203613281	1369.913208007812	932.8458251953125	216.2744140625	1111.103637695312	870.8067626953125	239.0329284667969	1099.615356445312	962.1161499023438	102.8334426879883	892.0741577148438	900.93701171875	154.7009429931641	886.7295532226562	834.4492797851562	194.4027862548828	1044.022827148438	852.818603515625	69.23648834228516	778.0316772460938	875.7266235351562	124.8256912231445	776.9776611328125	831.9822387695312	162.1217803955078	1607.007080078125	1121.727905273438	-19.89211654663086	1590.280517578125	1229.691650390625	-13.93603324890137	1602.225463867188	1137.980102539062	153.6527557373047	1578.672973632812	1264.266967773438	161.6043701171875	945.8806762695312	933.2747802734375	45.6715087890625	958.0488891601562	1004.500793457031	55.01214599609375	961.0271606445312	1256.594482421875	112.9902954101562	487.2621154785156	1269.168701171875	125.1866149902344	630.6115112304688	1293.098510742188	201.9602355957031	47.25661468505859	1234.497436523438	156.9986572265625	258.4417419433594	1259.884643554688	-10.16790294647217	38.08570098876953	1181.751342773438	60.18506240844727	30.89899063110352	1139.272094726562	79.67971038818359	41.08892059326172	1249.947387695312	244.361572265625	42.77426528930664	1172.380981445312	3.749722719192505	496.3634033203125	958.2916259765625	59.94334411621094	751.667724609375	935.05322265625	213.7689361572266	90.71797943115234	986.0997314453125	27.91409873962402	370.8228759765625	971.9077758789062	34.90913391113281	68.77679443359375	1063.423828125	95.10549163818359	71.46871185302734	1095.03076171875	112.5454711914062	58.03262710571289	979.7315063476562	271.3880310058594	102.9402084350586	1026.132202148438	194.8623962402344	953.24462890625	1307.282348632812	89.79533386230469	705.7390747070312	894.4019775390625	-72.32733154296875	714.5458374023438	1442.381713867188	nan	nan	nan	
578	5.77	266.1017150878906	992.45849609375	1036.11083984375	262.0935974121094	995.6892700195312	1210.6474609375	247.463623046875	1070.506103515625	1127.615356445312	-6.514214038848877	1248.549194335938	1132.708618164062	262.1036376953125	1188.401000976562	1135.111450195312	211.8030395507812	1430.889770507812	1166.130249023438	56.56731796264648	1348.132202148438	1145.660278320312	270.1976928710938	1301.559814453125	1083.171264648438	223.3432922363281	1385.780151367188	1266.640747070312	132.4289398193359	1389.785888671875	1312.59130859375	151.6422271728516	1274.02978515625	1388.934692382812	119.8418884277344	1078.16796875	1421.583984375	175.4987945556641	1048.553833007812	1361.092041015625	-16.20813369750977	885.7411499023438	1404.581909179688	21.68791580200195	868.7636108398438	1462.225341796875	84.03350830078125	981.5682983398438	1440.358276367188	-10.1836051940918	787.5687255859375	1472.057739257812	-66.28303527832031	803.8025512695312	1442.327026367188	155.7495422363281	1422.368041992188	1004.253662109375	171.2178344726562	1369.8017578125	934.2285766601562	214.7008209228516	1110.750122070312	872.727783203125	237.7235565185547	1099.580322265625	963.99609375	101.7082977294922	891.6155395507812	903.94677734375	153.2258605957031	886.2369384765625	837.22314453125	192.8087005615234	1043.582397460938	855.0194091796875	68.45867919921875	777.3140258789062	879.3963012695312	123.7376251220703	776.3344116210938	835.314208984375	161.0031127929688	1607.019775390625	1123.043090820312	-21.62496376037598	1590.6806640625	1230.068237304688	-15.20172119140625	1602.53466796875	1138.411743164062	151.7303619384766	1578.756591796875	1265.514892578125	160.6643981933594	945.9928588867188	934.6126098632812	44.7596549987793	957.9189453125	1005.164794921875	52.88018417358398	960.7554931640625	1257.308471679688	112.6677703857422	487.1300048828125	1269.622680664062	124.1891250610352	630.3037109375	1293.556640625	201.9789886474609	47.23955535888672	1234.539672851562	157.0181579589844	258.3922729492188	1260.149780273438	-10.13998126983643	38.10060882568359	1181.754760742188	60.06204986572266	30.99370384216309	1139.255004882812	79.71381378173828	41.0778694152832	1249.975830078125	244.3667907714844	42.78446578979492	1172.409423828125	5.792820453643799	495.3520202636719	959.6227416992188	60.47869110107422	751.1309204101562	936.1097412109375	206.94873046875	85.05326080322266	989.329345703125	27.86028861999512	369.290283203125	973.4998779296875	26.59484672546387	68.89315032958984	1064.697875976562	86.44998931884766	69.49789428710938	1097.01611328125	104.8071899414062	55.69683456420898	981.8167724609375	264.5006713867188	95.48529052734375	1029.999633789062	192.4721221923828	953.3556518554688	1308.678466796875	89.3094482421875	705.2029418945312	898.2483520507812	-78.15538787841797	714.9493408203125	1436.572387695312	nan	nan	nan	
